<?xml version="1.0" encoding="UTF-8"?>
<svg width="640" height="480" viewBox="0 0 640 480" xmlns="http://www.w3.org/2000/svg">
  <path fill="#00AEC7" d="M0 0h640v480H0z"/>
  <g fill="#FFC627">
    <circle cx="320" cy="240" r="60"/>
    <path d="M320 140l12 36.7 38.6-3.2-24.9 29.2 19.1 32.9-34.8-15.5-34.8 15.5 19.1-32.9-24.9-29.2 38.6 3.2z"/>
    <path d="M380 240c0-33.1-26.9-60-60-60v-20c44.2 0 80 35.8 80 80h-20z"/>
    <path d="M320 300c-33.1 0-60-26.9-60-60h-20c0 44.2 35.8 80 80 80v-20z"/>
    <path d="M260 240c0 33.1 26.9 60 60 60v20c-44.2 0-80-35.8-80-80h20z"/>
    <path d="M320 180c33.1 0 60 26.9 60 60h20c0-44.2-35.8-80-80-80v20z"/>
  </g>
</svg> 